<svg class="std-sheet" data-page="P07_SHARED_SENSORS" data-standard-page="P07" viewBox="0 0 1800 1060" xmlns="http://www.w3.org/2000/svg" role="img" aria-label="共享 I²C / CW2015 / QMI8658C 标准原理图">
      <defs>
      <pattern id="std-grid" width="40" height="40" patternUnits="userSpaceOnUse">
        <path d="M40 0H0V40" fill="none" stroke="#dbe4ef" stroke-width="0.8"/>
      </pattern>
      <marker id="std-arrow" markerWidth="9" markerHeight="7" refX="8" refY="3.5" orient="auto">
        <path d="M0 0L9 3.5L0 7Z" fill="#1f2937"/>
      </marker>
      <marker id="std-arrow-blue" markerWidth="9" markerHeight="7" refX="8" refY="3.5" orient="auto">
        <path d="M0 0L9 3.5L0 7Z" fill="#0b5cab"/>
      </marker>
      <style>
        .std-wire { fill:none; stroke:#1f2937; stroke-width:2; stroke-linejoin:round; stroke-linecap:round; }
        .std-thin { fill:none; stroke:#1f2937; stroke-width:1.3; }
        .std-text { font-family:Arial,"PingFang SC","Noto Sans SC",sans-serif; fill:#172033; }
        .std-value { font-family:Arial,"PingFang SC","Noto Sans SC",sans-serif; fill:#344054; font-size:12px; }
        .std-net { font-family:ui-monospace,SFMono-Regular,Menlo,monospace; fill:#0b5cab; font-size:12px; font-weight:700; }
      </style>
    </defs><rect width="1800" height="1060" fill="#ffffff"/><rect width="1800" height="1060" fill="url(#std-grid)"/>
      <text x="48" y="42" fill="#172033" font-size="22px" font-weight="700" text-anchor="start" font-family="Arial, PingFang SC, sans-serif"><tspan x="48" dy="0">P07  共享 I²C / CW2015 / QMI8658C</tspan></text><text x="48" y="66" fill="#475467" font-size="11px" font-weight="400" text-anchor="start" font-family="Arial, PingFang SC, sans-serif"><tspan x="48" dy="0">I2C0 总线、4.7 kΩ 上拉、地址表与 INT1/INT2 处理</tspan></text><rect x="1360" y="30" width="380" height="62" fill="#ffffff" stroke="#98a2b3"/><text x="1375" y="51" fill="#475467" font-size="11px" font-weight="700" text-anchor="start" font-family="Arial, PingFang SC, sans-serif"><tspan x="1375" dy="0">电子木鱼 / HARDWARE BASELINE</tspan></text><text x="1375" y="73" fill="#667085" font-size="10px" font-weight="400" text-anchor="start" font-family="Arial, PingFang SC, sans-serif"><tspan x="1375" dy="0">逻辑原理图 · 手工复刻参考 · V1.0</tspan></text><rect x="48" y="92" width="1700" height="70" rx="4" fill="#fff8db" stroke="#0b5cab" stroke-width="1.3"/><text x="60" y="114" fill="#0b5cab" font-size="12px" font-weight="700" text-anchor="start" font-family="Arial, PingFang SC, sans-serif"><tspan x="60" dy="0">I²C 地址与上拉</tspan></text><text x="60" y="135" fill="#172033" font-size="10px" font-weight="400" text-anchor="start" font-family="Arial, PingFang SC, sans-serif"><tspan x="60" dy="0">I2C0：SDA=IO1、SCL=IO2，统一 3V3 上拉 4.7 kΩ。首版地址 BQ=0x6A、CW2015=0x62、CST9217=0x5A、ES8311=0x18、QMI8658C=0x6B，必须上电扫描。</tspan></text><path d="M260 215V242h-10v36h20v-36h-10v27M260 278V305" fill="none" stroke="#172033" stroke-width="2"/><text x="278" y="257" fill="#172033" font-size="11px" font-weight="400" text-anchor="start" font-family="Arial, PingFang SC, sans-serif"><tspan x="278" dy="0">R_SDA</tspan><tspan x="278" dy="14">4.7 kΩ</tspan></text><path d="M360 215V242h-10v36h20v-36h-10v27M360 278V305" fill="none" stroke="#172033" stroke-width="2"/><text x="378" y="257" fill="#172033" font-size="11px" font-weight="400" text-anchor="start" font-family="Arial, PingFang SC, sans-serif"><tspan x="378" dy="0">R_SCL</tspan><tspan x="378" dy="14">4.7 kΩ</tspan></text><path d="M260 208V190m-7 7 7-7 7 7" class="std-thin"/><text x="272" y="194" fill="#0b5cab" font-size="11px" font-weight="700" text-anchor="start" font-family="Arial, PingFang SC, sans-serif"><tspan x="272" dy="0">3V3</tspan></text><path d="M360 208V190m-7 7 7-7 7 7" class="std-thin"/><text x="372" y="194" fill="#0b5cab" font-size="11px" font-weight="700" text-anchor="start" font-family="Arial, PingFang SC, sans-serif"><tspan x="372" dy="0">3V3</tspan></text><path d="M 260 305 L 260 470" fill="none" stroke="#0b5cab" stroke-width="2" stroke-linejoin="round" stroke-linecap="round"/><rect x="214.5" y="442" width="91" height="17" rx="3" fill="#ffffff" opacity="0.94"/><text x="260" y="455" fill="#0b5cab" font-size="11px" font-weight="700" text-anchor="middle" font-family="ui-monospace,SFMono-Regular,Menlo,monospace"><tspan x="260" dy="0">I2C_SDA / IO1</tspan></text><path d="M 360 305 L 360 470" fill="none" stroke="#0b5cab" stroke-width="2" stroke-linejoin="round" stroke-linecap="round"/><rect x="314.5" y="442" width="91" height="17" rx="3" fill="#ffffff" opacity="0.94"/><text x="360" y="455" fill="#0b5cab" font-size="11px" font-weight="700" text-anchor="middle" font-family="ui-monospace,SFMono-Regular,Menlo,monospace"><tspan x="360" dy="0">I2C_SCL / IO2</tspan></text><rect x="520" y="220" width="340" height="220" rx="4" fill="#ffffff" stroke="#13795b" stroke-width="2"/><text x="690" y="245" fill="#13795b" font-size="15px" font-weight="700" text-anchor="middle" font-family="Arial, PingFang SC, sans-serif"><tspan x="690" dy="0">U13</tspan></text><text x="690" y="265" fill="#344054" font-size="11px" font-weight="400" text-anchor="middle" font-family="Arial, PingFang SC, sans-serif"><tspan x="690" dy="0">CW2015 · 地址 0x62 候选</tspan></text><path d="M494 323H520" class="std-thin"/><text x="490" y="327" fill="#13795b" font-size="10px" font-weight="400" text-anchor="end" font-family="Arial, PingFang SC, sans-serif"><tspan x="490" dy="0">SDA</tspan></text><path d="M494 389H520" class="std-thin"/><text x="490" y="393" fill="#13795b" font-size="10px" font-weight="400" text-anchor="end" font-family="Arial, PingFang SC, sans-serif"><tspan x="490" dy="0">SCL</tspan></text><path d="M886 323H860" class="std-thin"/><text x="890" y="327" fill="#13795b" font-size="10px" font-weight="400" text-anchor="start" font-family="Arial, PingFang SC, sans-serif"><tspan x="890" dy="0">3V3</tspan></text><path d="M886 389H860" class="std-thin"/><text x="890" y="393" fill="#13795b" font-size="10px" font-weight="400" text-anchor="start" font-family="Arial, PingFang SC, sans-serif"><tspan x="890" dy="0">GND</tspan></text><rect x="1020" y="220" width="340" height="260" rx="4" fill="#ffffff" stroke="#13795b" stroke-width="2"/><text x="1190" y="245" fill="#13795b" font-size="15px" font-weight="700" text-anchor="middle" font-family="Arial, PingFang SC, sans-serif"><tspan x="1190" dy="0">U14</tspan></text><text x="1190" y="265" fill="#344054" font-size="11px" font-weight="400" text-anchor="middle" font-family="Arial, PingFang SC, sans-serif"><tspan x="1190" dy="0">QMI8658C · SA0=高 · 0x6B</tspan></text><path d="M994 318.667H1020" class="std-thin"/><text x="990" y="322.667" fill="#13795b" font-size="10px" font-weight="400" text-anchor="end" font-family="Arial, PingFang SC, sans-serif"><tspan x="990" dy="0">SDA</tspan></text><path d="M994 376H1020" class="std-thin"/><text x="990" y="380" fill="#13795b" font-size="10px" font-weight="400" text-anchor="end" font-family="Arial, PingFang SC, sans-serif"><tspan x="990" dy="0">SCL</tspan></text><path d="M994 433.333H1020" class="std-thin"/><text x="990" y="437.333" fill="#13795b" font-size="10px" font-weight="400" text-anchor="end" font-family="Arial, PingFang SC, sans-serif"><tspan x="990" dy="0">SA0</tspan></text><path d="M1386 333H1360" class="std-thin"/><text x="1390" y="337" fill="#13795b" font-size="10px" font-weight="400" text-anchor="start" font-family="Arial, PingFang SC, sans-serif"><tspan x="1390" dy="0">INT1</tspan></text><path d="M1386 419H1360" class="std-thin"/><text x="1390" y="423" fill="#13795b" font-size="10px" font-weight="400" text-anchor="start" font-family="Arial, PingFang SC, sans-serif"><tspan x="1390" dy="0">INT2</tspan></text><path d="M1190 195V220" class="std-thin"/><text x="1190" y="190" fill="#13795b" font-size="10px" font-weight="400" text-anchor="middle" font-family="Arial, PingFang SC, sans-serif"><tspan x="1190" dy="0">3V3</tspan></text><path d="M1190 505V480" class="std-thin"/><text x="1190" y="520" fill="#13795b" font-size="10px" font-weight="400" text-anchor="middle" font-family="Arial, PingFang SC, sans-serif"><tspan x="1190" dy="0">GND</tspan></text><path d="M 260 470 L 470 470 L 470 323 L 494 323" fill="none" stroke="#0b5cab" stroke-width="2" stroke-linejoin="round" stroke-linecap="round"/><path d="M 360 470 L 450 470 L 450 389 L 494 389" fill="none" stroke="#0b5cab" stroke-width="2" stroke-linejoin="round" stroke-linecap="round"/><path d="M 260 470 L 930 470 L 930 318.667 L 994 318.667" fill="none" stroke="#0b5cab" stroke-width="2" stroke-linejoin="round" stroke-linecap="round"/><rect x="679" y="442" width="42" height="17" rx="3" fill="#ffffff" opacity="0.94"/><text x="700" y="455" fill="#0b5cab" font-size="11px" font-weight="700" text-anchor="middle" font-family="ui-monospace,SFMono-Regular,Menlo,monospace"><tspan x="700" dy="0">共享 SDA</tspan></text><path d="M 360 470 L 900 470 L 900 376 L 994 376" fill="none" stroke="#0b5cab" stroke-width="2" stroke-linejoin="round" stroke-linecap="round"/><rect x="679" y="477" width="42" height="17" rx="3" fill="#ffffff" opacity="0.94"/><text x="700" y="490" fill="#0b5cab" font-size="11px" font-weight="700" text-anchor="middle" font-family="ui-monospace,SFMono-Regular,Menlo,monospace"><tspan x="700" dy="0">共享 SCL</tspan></text><path d="M 994 433.333 L 980 433.333 L 980 170" fill="none" stroke="#0b5cab" stroke-width="2" stroke-linejoin="round" stroke-linecap="round"/><rect x="932.5" y="142" width="35" height="17" rx="3" fill="#ffffff" opacity="0.94"/><text x="950" y="155" fill="#0b5cab" font-size="11px" font-weight="700" text-anchor="middle" font-family="ui-monospace,SFMono-Regular,Menlo,monospace"><tspan x="950" dy="0">SA0=高</tspan></text><path d="M 1386 333 L 1430 333" fill="none" stroke="#0b5cab" stroke-width="2" stroke-linejoin="round" stroke-linecap="round" marker-end="url(#std-arrow-blue)"/><rect x="1457.5" y="314" width="105" height="17" rx="3" fill="#ffffff" opacity="0.94"/><text x="1510" y="327" fill="#0b5cab" font-size="11px" font-weight="700" text-anchor="middle" font-family="ui-monospace,SFMono-Regular,Menlo,monospace"><tspan x="1510" dy="0">IMU_INT1 → IO41</tspan></text><path d="M 1386 419 L 1430 419" fill="none" stroke="#b42318" stroke-width="2" stroke-linejoin="round" stroke-linecap="round" stroke-dasharray="7 5"/><rect x="1468" y="400" width="84" height="17" rx="3" fill="#ffffff" opacity="0.94"/><text x="1510" y="413" fill="#b42318" font-size="11px" font-weight="700" text-anchor="middle" font-family="ui-monospace,SFMono-Regular,Menlo,monospace"><tspan x="1510" dy="0">NC / 不占 IO45</tspan></text><rect x="520" y="560" width="840" height="190" rx="4" fill="#fff8db" stroke="#0b5cab" stroke-width="1.3"/><text x="532" y="582" fill="#0b5cab" font-size="12px" font-weight="700" text-anchor="start" font-family="Arial, PingFang SC, sans-serif"><tspan x="532" dy="0">同一总线上的其他器件</tspan></text><text x="532" y="603" fill="#172033" font-size="10px" font-weight="400" text-anchor="start" font-family="Arial, PingFang SC, sans-serif"><tspan x="532" dy="0">U1 BQ25895：0x6A（P01）</tspan></text><text x="532" y="620" fill="#172033" font-size="10px" font-weight="400" text-anchor="start" font-family="Arial, PingFang SC, sans-serif"><tspan x="532" dy="0">U10 CST9217：0x5A（P03）</tspan></text><text x="532" y="637" fill="#172033" font-size="10px" font-weight="400" text-anchor="start" font-family="Arial, PingFang SC, sans-serif"><tspan x="532" dy="0">U11 ES8311：0x18（P04）</tspan></text><text x="532" y="654" fill="#172033" font-size="10px" font-weight="400" text-anchor="start" font-family="Arial, PingFang SC, sans-serif"><tspan x="532" dy="0">地址冲突时先改硬件基线/spine，再改固件；不要静默兼容多个地址</tspan></text><rect x="60" y="560" width="390" height="190" rx="4" fill="#fff8db" stroke="#13795b" stroke-width="1.3"/><text x="72" y="582" fill="#13795b" font-size="12px" font-weight="700" text-anchor="start" font-family="Arial, PingFang SC, sans-serif"><tspan x="72" dy="0">测试点</tspan></text><text x="72" y="603" fill="#172033" font-size="10px" font-weight="400" text-anchor="start" font-family="Arial, PingFang SC, sans-serif"><tspan x="72" dy="0">TP_I2C_SDA</tspan></text><text x="72" y="620" fill="#172033" font-size="10px" font-weight="400" text-anchor="start" font-family="Arial, PingFang SC, sans-serif"><tspan x="72" dy="0">TP_I2C_SCL</tspan></text><text x="72" y="637" fill="#172033" font-size="10px" font-weight="400" text-anchor="start" font-family="Arial, PingFang SC, sans-serif"><tspan x="72" dy="0">TP_IMU_INT1</tspan></text><text x="72" y="654" fill="#172033" font-size="10px" font-weight="400" text-anchor="start" font-family="Arial, PingFang SC, sans-serif"><tspan x="72" dy="0">上电扫描日志必须保留</tspan></text><text x="72" y="671" fill="#172033" font-size="10px" font-weight="400" text-anchor="start" font-family="Arial, PingFang SC, sans-serif"><tspan x="72" dy="0">QMI8658C MVP 默认不启用，仅首版贴装</tspan></text><rect x="60" y="810" width="1610" height="80" rx="4" fill="#fff8db" stroke="#b42318" stroke-width="1.3"/><text x="72" y="832" fill="#b42318" font-size="12px" font-weight="700" text-anchor="start" font-family="Arial, PingFang SC, sans-serif"><tspan x="72" dy="0">封装提醒</tspan></text><text x="72" y="853" fill="#172033" font-size="10px" font-weight="400" text-anchor="start" font-family="Arial, PingFang SC, sans-serif"><tspan x="72" dy="0">CW2015/QMI8658C 的具体封装、SA0/INT 电平和去耦按实际采购批次核对；图中地址是首版合同，不是样机 ACK 结果。</tspan></text><path d="M48 1010H1750" stroke="#98a2b3"/><text x="48" y="1033" fill="#667085" font-size="10px" font-weight="400" text-anchor="start" font-family="Arial, PingFang SC, sans-serif"><tspan x="48" dy="0">P07 · 共享总线地址必须唯一；先扫描再冻结驱动配置。</tspan></text><text x="1740" y="1033" fill="#b42318" font-size="10px" font-weight="700" text-anchor="end" font-family="Arial, PingFang SC, sans-serif"><tspan x="1740" dy="0">STATUS: BASELINE / NOT ERC</tspan></text>
    </svg>